# xmcd
#
# Track frame offsets:
#	150
#	13257
#	25612
#	37432
#	50047
#	63512
#	75980
#	88552
#	101580
#	115430
#	129995
#	163057
#	178687
#
# Disc length: 2636
#
# Revision: 1
# Processed by: cddbd v1.5.1PL0 Copyright (c) Steve Scherf et al.
# Submitted via: dBpowerAMP V4.0
# Normalized: r0:TDELIM( - )
#
DISCID=ac0a4a0d
DTITLE=Various Artist - Soul Music that Changed Our Lives
DYEAR=1900
DGENRE=Soul
TTITLE0=Diana Ross and the Supremes - You Can't Hurry love
TTITLE1=Four Tops - I Can't Help Myself (Sugar Pie, Honey Bunch)
TTITLE2=Temptations - Get Ready
TTITLE3=Mary Wells - My Guy
TTITLE4=Jackson 5 - I Want You Back
TTITLE5=Martha Reeves and The Vandellas - (Love is Like A) Heat Wave
TTITLE6=Impressions - It's All Right
TTITLE7=Fontella Bass - Rescue Me
TTITLE8=Smokey Robinson and The Miracles - The Tears of a Clown
TTITLE9=Gladys Knight and The Pips - If I Were Your Woman
TTITLE10=Pointer Sisters - How Long (Betcha got a chick on the side)
TTITLE11=Commodores - Brick House
TTITLE12=Marvin Gaye - Got To Give It Up (Pt 1)
EXTD=soul music that changed our lives
EXTT0=
EXTT1=
EXTT2=
EXTT3=
EXTT4=
EXTT5=
EXTT6=
EXTT7=
EXTT8=
EXTT9=
EXTT10=
EXTT11=
EXTT12=
PLAYORDER=
